# xmcd
#
# Track frame offsets: 
#        150
#        9385
#        24775
#        36375
#        52425
#        67703
#        87160
#        97610
#        111895
#        126650
#        139357
#        149797
#        162107
#        175237
#        187012
#        196177
#
# Disc length: 2771 seconds
#
# Revision: 0
# Processed by: cddbd v1.5.2PL0 Copyright (c) Steve Scherf et al.
# Submitted via: ExactAudioCopy v0.95b3
#
DISCID=e10ad110
DTITLE=Spring  - Spring (1972) (+ bonus tracks)  FLAC
DYEAR=1900
DGENRE=
TTITLE0=Tennesee Waltz
TTITLE1=Thinkin' Bout You Baby
TTITLE2=Mama Said
TTITLE3=SuperStar
TTITLE4=Awake
TTITLE5=Sweet Mountain
TTITLE6=Everybody
TTITLE7=This Whole World
TTITLE8=Forever
TTITLE9=Good Time
TTITLE10=Now That Everything's Been Said
TTITLE11=Down Home
TTITLE12=Shyin' Away
TTITLE13=Fallin' In Love
TTITLE14=Had to Phone Ya
TTITLE15=It's Like Heaven
EXTD=
EXTT0=
EXTT1=
EXTT2=
EXTT3=
EXTT4=
EXTT5=
EXTT6=
EXTT7=
EXTT8=
EXTT9=
EXTT10=
EXTT11=
EXTT12=
EXTT13=
EXTT14=
EXTT15=
PLAYORDER=
